<svg xmlns="http://www.w3.org/2000/svg" viewBox="0 0 1139.811 386.626"><defs><style>.a{fill:#1d1d1b;stroke:#fff;stroke-miterlimit:10;stroke-width:5px;}.b{fill:#8349ff;}.c{fill:#8a1f00;}</style></defs><path class="a" d="M687.418,277.011c-1.4-5.1-6.222-7.015-11.018-6.256l-22.744,3.6q-7.6-73.524-12.106-147.319a202.4,202.4,0,0,1,24.692-1.129,8.957,8.957,0,0,0,0-17.913,218.653,218.653,0,0,0-65.518,8.958,8.959,8.959,0,1,0,4.763,17.274c6.058-1.8,12.173-3.267,18.327-4.485q4.518,73.825,12.212,147.4l-34.3,5.428c-4.782.757-7.435,6.728-6.256,11.018,1.4,5.1,6.222,7.015,11.018,6.256l32.376-5.123a8.41,8.41,0,0,0,7.445,4.344c3.8,0,8-3.019,8.825-6.918l26.032-4.119C685.944,287.272,688.6,281.3,687.418,277.011Z"/><path class="a" d="M781.174,149.533c3.375-11.4-1.218-23.776-10.18-31.324a33.4,33.4,0,0,0-33.207-6.062c-23.494,8.575-39.374,38.014-29.889,62.1,4.546,11.545,13.564,19.3,22.844,27.054,9.26,7.736,16.985,16.34,22.641,27.062,5.368,10.177,9.136,22.169,8.827,33.763-.257,9.645-4.86,16.029-13.682,17.747-8.356,1.626-17.85-2.209-23.469-9.794-7.355-9.929-8.714-22.892-7.671-34.846.42-4.826-4.418-8.957-8.957-8.957-5.2,0-8.535,4.117-8.957,8.957-1.926,22.086,5.552,49,27.422,58.875,20.461,9.239,46.868,1.253,52.075-22.42,5.421-24.648-7.07-52.5-22.87-70.872-7.6-8.842-17.523-15.089-25.445-23.571-7.637-8.179-9.1-18.375-5.431-28.817,3.431-9.759,12.708-20.079,23.718-20.419,8.736-.269,17.518,8.115,14.957,16.765-3.281,11.077,14,15.809,17.274,4.762Z"/><path class="b" d="M55.674,65.73C64.889,63.9,74.149,62.265,83.445,60.9a561.083,561.083,0,0,1,61.039-5.246c25.528-.923,25.65-40.715,0-39.788a646.315,646.315,0,0,0-71.616,6.667C53.587,25.4,25.707,26.6,11.74,42.246-2.991,58.746,1.12,88.775.636,109.167Q-.258,146.91.1,184.669q.35,36.451,1.869,72.878.76,18.21,1.812,36.406c.614,10.611-.294,23.319,4.361,33.135,10.958,23.106,37.925,15.1,57.984,12.948l76.391-8.182c10.682-1.144,19.894-8.325,19.894-19.894,0-9.868-9.143-21.045-19.894-19.894l-60.586,6.49-28.976,3.1c-1.615.173-4.8.2-7.958.374.239-7.542-1.958-17.424-2.276-23.679q-.729-14.3-1.278-28.612-.627-16.422-1-32.853L115,210.255c10.338-.92,20.405-8.491,19.894-19.894-.447-9.988-8.793-20.881-19.894-19.894l-75.119,6.685c-.093-14.852-.085-29.7.114-44.556q.192-14.319.562-28.635c.255-9.79-1.038-21.636,1.028-31.228,1.2-5.547-3.472-1.322,2.744-4.579C47.5,66.489,52.206,66.419,55.674,65.73Z"/><path class="b" d="M311.076,214.2c9.49-4.349,12.56-18.806,7.137-27.218-6.312-9.791-17.067-11.79-27.219-7.137-1.7.777-3.4,1.564-5.117,2.29-.812.319-1.9.751-2.141.845q-5.317,2.1-10.737,3.924-10.448,3.524-21.2,6.028-5.169,1.2-10.391,2.17c-.387.072-.777.129-1.165.2q.19-21.6-.451-43.2-.786-25.827-2.785-51.595-1-12.881-2.3-25.734c-.41-4.048.331-16.861-1.574-21.776.348-.2.7-.4,1.1-.653,3.581-.568,7.337-2.658,10.761-3.818a221.883,221.883,0,0,1,22.032-6.381c15.123-3.434,29.216-3.3,43.693,2.526,10.041,4.039,21.758-4.408,24.472-13.9C338.429,19.463,331.221,10.3,321.3,6.3c-33.258-13.38-69.935-3.145-101.868,9.244-15.74,6.107-26.69,16.351-26.959,34.259-.275,18.383,3.8,37.477,5.135,55.853q3.482,47.8,2.769,95.771c-5.615,3.538-9.589,9.582-9.275,16.58a21.658,21.658,0,0,0,8.51,16.264c-.631,31.828-.894,67.742-16.306,95.16-12.562,22.348,21.8,42.428,34.356,20.082,15.788-28.088,18.173-60.012,20.256-91.54q.741-11.233,1.236-22.481A260.173,260.173,0,0,0,311.076,214.2Z"/><path class="b" d="M468.309,346.353q-.594-3.591-1.183-7.184-1.687-10.338-3.312-20.684-3.251-20.692-6.257-41.423c-.482-3.321-.942-6.646-1.414-9.969a15.475,15.475,0,0,0,.311-3.765,21.61,21.61,0,0,0-2.031-8.439q-4.192-30.358-7.831-60.79Q436.643,110.9,430.619,27.3c-1.584-21.776-32.577-27.737-39.077-5.289q-22.425,77.451-44.852,154.9c-5.223,18.04-10,36.544-15.127,55-8.142,2.282-14.809,11.334-14.447,19.43a19.963,19.963,0,0,0,4.915,12.779c-6.393,20.033-13.76,39.646-23.2,58.139-11.619,22.761,22.7,42.919,34.356,20.082,11.14-21.825,19.651-44.856,27.05-68.309l58.033,6.988q4.554,31.818,9.65,63.557c2.408,14.895,2.629,33.566,18.9,40.273,16.238,6.691,29.111-6.6,30.745-21.767C478.324,356.084,473.433,350.254,468.309,346.353ZM383.586,192.572l16.677-57.6q5.423,52.877,12.409,105.582l-41.136-4.953C375.558,221.205,379.466,206.8,383.586,192.572Z"/><path class="c" d="M982.947,193.881c11.476,1.939,20.331-1.982,27.2-8.917,3.27,4.874,8.846,7.731,15.037,5.967,6.6-1.881,12.018-9.949,9.361-16.853a74.106,74.106,0,0,1-4.919-34.352c.744-4.137,1.305-8.089,1.678-11.623,1.618-15.317-23.546-18.214-26.8-3.372a106.552,106.552,0,0,0-1.978,12.89,88.378,88.378,0,0,1-8,22.441c-3.242,6.178-6.72,10.5-12.4,3.18-5.885-7.575-7.619-19.251-8.438-28.538a128.122,128.122,0,0,1,1.877-34.942,227.381,227.381,0,0,1,9.909-35.373c2.668-7.351,6.259-15.25,12.142-20.617,4.083-3.724,8.452-5.612,12.75-.539,6.114,7.214.655,17.442-3.925,23.775-4.316,5.969-.843,15.219,5.064,18.6,6.964,3.986,14.273.918,18.6-5.064,15.447-21.358,13.258-55.986-14.668-65.817-24.456-8.609-44.1,13.367-52.757,33.62-10.676,24.988-17.594,53.327-16.607,80.613C946.937,153.168,954.238,189.031,982.947,193.881Z"/><path class="c" d="M1137.914,23.582c-4.357-6.621-11.8-8.027-18.691-4.714-.468.225-5.075,2.194-2.371,1.119-1.145.455-2.285.914-3.441,1.34q-4.041,1.489-8.205,2.616t-8.4,1.9c-.624.113-1.25.215-1.876.316-1.424.132-2.842.326-4.268.443a100.272,100.272,0,0,1-17.215-.064c-.288-.026-3.082-.422-2.187-.262-1.312-.206-2.626-.4-3.932-.652-2.823-.541-5.611-1.224-8.379-2-6.863-1.918-15.122,2.55-16.675,9.676-1.59,7.3,2.326,14.619,9.676,16.674a111.306,111.306,0,0,0,22.885,3.8c-.325,4.169-.165,8.452-.216,12.493q-.139,11.073-.007,22.146.518,43.069,5.142,85.94c.78,7.319,5.882,13.574,13.755,13.5,6.819-.064,14.285-6.393,13.5-13.756q-3.26-30.589-4.51-61.341-.579-14.754-.677-29.52-.048-7.383.025-14.765c.022-2.274.06-4.549.1-6.824a11.823,11.823,0,0,0,4.454-6.944,18.7,18.7,0,0,0,.367-3.4,120.293,120.293,0,0,0,26.436-9.028C1139.644,39.176,1141.708,29.348,1137.914,23.582Z"/><path class="c" d="M976.474,255.027a232.428,232.428,0,0,0,47.973-5.649c6.967-1.558,11.6-10.153,9.36-16.853-2.451-7.339-9.388-11.03-16.853-9.361-3.08.689-6.169,1.327-9.275,1.887-1.331.239-2.666.456-4,.68-.472.079-.759.129-.994.171-.216.027-.388.048-.739.1-5.811.766-11.647,1.316-17.5,1.608-4.567.228-9.136.258-13.7.187a15.214,15.214,0,0,0-13.872-.64c-2.511-.2-5.021-.422-7.526-.708-7.111-.81-13.864,7.024-13.5,13.756.434,8,5.965,12.466,13.4,13.436q.12,24.7,1.693,49.307a10.412,10.412,0,0,0-.83,2.307c-.763,3.5-.554,7.411,1.472,10.488.09.138.2.238.292.37q2.123,27.227,5.887,54.332.189,1.486.377,2.973l.027,0c.171,1.206.318,2.415.494,3.622,2.187,15.028,28.67,11.387,26.735-3.874q-.657-5.184-1.315-10.368c-.079-.622-.226-1.222-.361-1.826q-2.358-17.583-3.93-35.261a66.226,66.226,0,0,0,22.538-3.168,14.338,14.338,0,0,0,8.085-6.339,13.914,13.914,0,0,0,1.275-10.514c-2.264-6.779-9.6-11.744-16.853-9.361a37.776,37.776,0,0,1-17.021,1.911Q976.615,276.649,976.474,255.027Z"/><path class="c" d="M1106,221.4c-17.114-4.153-35.645,1.034-47.564,14.182-4.409,4.862-4.7,10.827-1.976,16.534,4.769,10,11.881,18.5,18.41,27.364a103.756,103.756,0,0,1,8.569,13.195c.155.3.858,1.813,1.042,2.145.384.983.756,1.977,1.06,2.983.277.919.483,1.852.69,2.786-.013.221.273,2.133.282,2.411a28.245,28.245,0,0,1-.1,3.223c-.13.31-.507,2.071-.578,2.406q-.174.543-.349,1.086l-.02.042a30.636,30.636,0,0,1-2.01,3.517c-.062.091-.042.064-.088.134-.38.45-.768.893-1.181,1.314-.623.655-1.293,1.279-1.981,1.876-.292.127-1.9,1.223-2.157,1.4a5.882,5.882,0,0,0-.795.625,4.628,4.628,0,0,0-.861.221,32.71,32.71,0,0,1-3.228.893,25.75,25.75,0,0,0-2.655.093,7.767,7.767,0,0,0-1,.082,8.48,8.48,0,0,0-.939-.278c-1.178-.3-2.345-.609-3.493-1-.261-.19-2.253-1.13-2.375-1.2-.288-.169-1.961-1.436-2.193-1.551a27.114,27.114,0,0,1-2.1-2.053c-.1-.116-.087-.095-.156-.172-.492-.712-.957-1.439-1.379-2.195a13.63,13.63,0,0,0-23.4,13.977,44.078,44.078,0,0,0,45.106,20.894c15.881-2.654,29.115-15.43,33.6-30.705,7.941-27.023-12.574-46.1-26.193-66.858.529-.209,1.03-.435,1.612-.615a33.17,33.17,0,0,1,3.527-.881l.081-.016,1.344-.1c1.257,0,2.5-.034,3.745.039-.037.074,2.543.511,2.7.55a13.889,13.889,0,0,0,16.675-9.676C1117.53,231.055,1113.177,223.141,1106,221.4Z"/></svg>